<svg id="Layer_1" data-name="Layer 1" xmlns="http://www.w3.org/2000/svg" viewBox="0 0 512 512"><defs><style>.cls-1{fill:#2a3035;}.cls-2{fill:none;stroke:#2a3035;stroke-miterlimit:10;stroke-width:6px;}.cls-3{fill:#2b7fbf;}</style></defs><path class="cls-1" d="M368.1,30.49l-40.26,5.08L81.14,66.72,43,71.54V440l38.09,4.81,246.78,31.15L368.1,481l114.75-89.66V120.16ZM363,461.62l-6.75-.85-26.12-3.3L83.5,426.34l-1.67-.21-15.48-1.95h0l-4.78-.61V87.92l5.24-.66,15.46-2,1.22-.16L330.15,54l26.12-3.3,6.75-.85L470.8,126.68V384.81Z"/><path class="cls-1" d="M365.55,480.59a9.28,9.28,0,0,1-9.28-9.29V40.17a9.29,9.29,0,0,1,18.57,0V471.3A9.29,9.29,0,0,1,365.55,480.59Z"/><line class="cls-2" x1="415.32" y1="80.57" x2="415.32" y2="434.47"/><line class="cls-2" x1="450.46" y1="106.58" x2="450.46" y2="408.46"/><line class="cls-2" x1="476.59" y1="213.66" x2="368.59" y2="184.22"/><line class="cls-2" x1="476.59" y1="301.39" x2="365.55" y2="328.78"/><line class="cls-2" x1="143.08" y1="68.26" x2="143.08" y2="443.22"/><line class="cls-2" x1="246.57" y1="55.19" x2="246.57" y2="456.28"/><line class="cls-2" x1="365.55" y1="183.88" x2="52.26" y2="197.07"/><line class="cls-2" x1="365.55" y1="327.59" x2="52.26" y2="314.41"/><circle class="cls-3" cx="476.92" cy="124.55" r="14.49"/><circle class="cls-3" cx="476.92" cy="387.45" r="14.49"/><circle class="cls-3" cx="52.26" cy="79.99" r="31.67"/><circle class="cls-3" cx="52.26" cy="431.83" r="31.67"/><circle class="cls-3" cx="365.55" cy="40.44" r="38"/><circle class="cls-3" cx="365.55" cy="471.56" r="38"/></svg>