<svg id="Layer_1" data-name="Layer 1" xmlns="http://www.w3.org/2000/svg" viewBox="0 0 512 512"><defs><style>.cls-1{fill:#3681bb;}.cls-2{fill:#fff;}.cls-3{fill:#2a3035;}.cls-4{fill:#2b7fbf;}</style></defs><path class="cls-1" d="M405.38,313.26A168.66,168.66,0,1,1,236.72,144.6,168.66,168.66,0,0,1,405.38,313.26"/><path class="cls-2" d="M193.13,313.25a46.72,46.72,0,1,0,46.72-46.72,46.77,46.77,0,0,0-46.72,46.72"/><path class="cls-2" d="M345.75,357.77l-41.16-20.59a1.51,1.51,0,0,0-1.23-.06,1.54,1.54,0,0,0-.88.87,67.35,67.35,0,1,1-.05-49.56,1.54,1.54,0,0,0,2.12.81l41.2-20.52a1.53,1.53,0,0,0,.72-2,116.32,116.32,0,1,0,0,93,1.54,1.54,0,0,0-.72-2"/><path class="cls-3" d="M436.51,106.71c.62,16.57-30.41,31.16-31.13,31.14l-8.66-7.16h-5v-3.78h-144c-23.07,0-86.15,3.45-136,46.25-.59.49-1.18,1-1.76,1.52q-3.45,3-6.76,6.23l-1.72,1.69c-.66.65-1.32,1.31-2,2-1.29,1.34-2.57,2.69-3.83,4.07A173.35,173.35,0,0,0,70,225.44a175.47,175.47,0,0,0-14.89,39.9v0q-.33,1.33-.63,2.67a185.44,185.44,0,0,0-4.35,45.72,181.65,181.65,0,0,0,55.43,125.59,190.71,190.71,0,0,0,60,39.11,195.09,195.09,0,0,0,22.95,7.84,212.8,212.8,0,0,0,48.21,7.38A213.71,213.71,0,0,1,187.65,490,197.49,197.49,0,0,1,39.48,365.55a203.55,203.55,0,0,1-11.86-50.21,209.65,209.65,0,0,1,1-52,204.7,204.7,0,0,1,41.07-96.41,209.07,209.07,0,0,1,38-37.67,215,215,0,0,1,46.61-27.09,226.35,226.35,0,0,1,52-15,232.73,232.73,0,0,1,27-2.83l24.86-1,49.06-1.85,98.13-3.7A30,30,0,0,1,436.51,106.71Z"/><polygon class="cls-3" points="485.55 98.16 385.93 185.53 379.91 18.16 485.55 98.16"/><path class="cls-4" d="M55.12,265.34c.16-1.44,4.74-40.51,44.34-80.76-1.29,1.34-2.57,2.69-3.83,4.07A173.35,173.35,0,0,0,70,225.44,175.47,175.47,0,0,0,55.12,265.34Z"/></svg>