<svg id="Layer_1" data-name="Layer 1" xmlns="http://www.w3.org/2000/svg" viewBox="0 0 512 512"><defs><style>.cls-1{fill:#4b92c9;stroke:#2a3035;stroke-miterlimit:10;stroke-width:17px;}.cls-2{fill:#fff;}.cls-3{fill:#2a3035;}</style></defs><path class="cls-1" d="M59.65,64.91V456H280.84V64.91Z"/><path class="cls-1" d="M170.24,456V64.91"/><path class="cls-2" d="M115,412a21.88,21.88,0,1,1,21.87-21.88A21.91,21.91,0,0,1,115,412Z"/><path class="cls-3" d="M115,376.76a13.38,13.38,0,1,1-13.38,13.37A13.39,13.39,0,0,1,115,376.76m0-17a30.38,30.38,0,1,0,30.37,30.37A30.38,30.38,0,0,0,115,359.76Z"/><rect class="cls-3" x="84.57" y="130.99" width="60.75" height="17"/><rect class="cls-3" x="84.57" y="158.53" width="60.75" height="17"/><rect class="cls-3" x="84.57" y="184.71" width="60.75" height="17"/><path class="cls-2" d="M225.54,412a21.88,21.88,0,1,1,21.88-21.88A21.9,21.9,0,0,1,225.54,412Z"/><path class="cls-3" d="M225.54,376.76a13.38,13.38,0,1,1-13.37,13.37,13.39,13.39,0,0,1,13.37-13.37m0-17a30.38,30.38,0,1,0,30.38,30.37,30.37,30.37,0,0,0-30.38-30.37Z"/><rect class="cls-3" x="195.17" y="130.99" width="60.75" height="17"/><rect class="cls-3" x="195.17" y="158.53" width="60.75" height="17"/><rect class="cls-3" x="195.17" y="184.71" width="60.75" height="17"/><path class="cls-1" d="M297.54,68.12l44.95,388.47,109.86-12.71L407.41,55.41Z"/><path class="cls-2" d="M390.08,406.7a21.87,21.87,0,0,1-2.74-43.6c.76-.08,1.53-.13,2.29-.14a21.87,21.87,0,0,1,2.74,43.6A19.55,19.55,0,0,1,390.08,406.7Z"/><path class="cls-3" d="M389.73,371.46a13.37,13.37,0,0,1,1.66,26.65,13.55,13.55,0,0,1-1.41.1,13.37,13.37,0,0,1-1.66-26.66,11.12,11.12,0,0,1,1.41-.09h0m-.21-17a30.81,30.81,0,0,0-3.16.2,30.37,30.37,0,1,0,3.16-.2Z"/><rect class="cls-3" x="330.67" y="127.35" width="60.74" height="17" transform="translate(-13.22 42.41) rotate(-6.6)"/><rect class="cls-3" x="333.84" y="154.71" width="60.75" height="17" transform="translate(-16.35 42.95) rotate(-6.6)"/><rect class="cls-3" x="336.85" y="180.71" width="60.74" height="17" transform="translate(-19.32 43.47) rotate(-6.6)"/></svg>